<svg xmlns="http://www.w3.org/2000/svg" xmlns:xlink="http://www.w3.org/1999/xlink" aria-hidden="true" role="img" class="iconify iconify--logos" width="31.88" height="32" preserveAspectRatio="xMidYMid meet" viewBox="0 0 256 257"><defs><linearGradient id="IconifyId1813088fe1fbc01fb466" x1="-.828%" x2="57.636%" y1="7.652%" y2="78.411%"><stop offset="0%" stop-color="#41D1FF"></stop><stop offset="100%" stop-color="#BD34FE"></stop></linearGradient><linearGradient id="IconifyId1813088fe1fbc01fb467" x1="43.376%" x2="50.316%" y1="2.242%" y2="89.03%"><stop offset="0%" stop-color="#FFEA83"></stop><stop offset="8.333%" stop-color="#FFDD35"></stop><stop offset="100%" stop-color="#FFA800"></stop></linearGradient></defs><path fill="url(#IconifyId1813088fe1fbc01fb466)" d="M255.153 37.938L134.897 252.976c-4.086 7.915-14.564 7.915-18.65 0L.837 37.938c-4.086-7.915 1.636-17.473 10.534-17.473h233.288c8.898 0 14.636 9.559 10.534 17.473Z"></path><path fill="url(#IconifyId1813088fe1fbc01fb467)" d="M185.432.063L96.44 94.054c-4.27 4.381-4.27 11.35 0 15.731l88.993 87.998c5.108 5.099 13.664 2.552 15.734-4.801l34.095-119.994c2.062-7.279-4.647-15.028-12.202-15.028l-68.886.027-2.552 4.705h-34.095l-2.552-4.705-34.095 119.994c-2.062 7.279 4.647 15.028 12.202 15.028l68.886-.027 2.552-4.705z"></path></svg>